<svg width="17" height="19" viewBox="0 0 17 19" fill="none" xmlns="http://www.w3.org/2000/svg">
<path d="M17 0C17 0.552285 16.5523 1 16 1L1 0.999996C0.447715 0.999996 1.17422e-07 0.55228 2.62268e-07 -4.45856e-06V-4.45856e-06L17 0V0Z" fill="black"/>
<path d="M17 19C17 18.4477 16.5523 18 16 18L1 18C0.447715 18 1.17422e-07 18.4477 2.62268e-07 19V19L17 19V19Z" fill="black"/>
<path d="M14.5 18V18C14.5 15.4779 13.3286 13.0989 11.3295 11.5612L8 9.00004L5 6.50004L4.62132 6.12136C3.26306 4.7631 2.5 2.92091 2.5 1.00004V1.00004" stroke="black" stroke-width="2"/>
<path d="M2.5 18V18C2.5 15.4779 3.67143 13.0989 5.6705 11.5612L9 8.99999L12 6.5L12.3787 6.12131C13.7369 4.76306 14.5 2.92086 14.5 0.999996V0.999996" stroke="black" stroke-width="2"/>
<path d="M5 17.5C5 16.6716 5.67157 16 6.5 16H10.5C11.3284 16 12 16.6716 12 17.5V17.5H5V17.5Z" fill="black"/>
<path d="M6 5.23804H11L8.5 7.23804L6 5.23804Z" fill="black"/>
</svg>
